<svg xmlns="http://www.w3.org/2000/svg" width="720" height="420" viewBox="0 0 720 420" role="img" aria-labelledby="title desc">
  <title id="title">Dify 管理制度问答助手封面</title>
  <desc id="desc">A warm editorial cover showing documents flowing into an AI question answering workspace.</desc>
  <defs>
    <linearGradient id="bg" x1="0" y1="0" x2="1" y2="1">
      <stop offset="0" stop-color="#fffaf1"/>
      <stop offset=".55" stop-color="#f1dfc4"/>
      <stop offset="1" stop-color="#d6e6df"/>
    </linearGradient>
    <linearGradient id="accent" x1="0" y1="0" x2="1" y2="1">
      <stop offset="0" stop-color="#0d6f70"/>
      <stop offset="1" stop-color="#24211b"/>
    </linearGradient>
    <filter id="shadow" x="-20%" y="-20%" width="140%" height="150%">
      <feDropShadow dx="0" dy="18" stdDeviation="18" flood-color="#49361c" flood-opacity=".16"/>
    </filter>
  </defs>
  <rect width="720" height="420" fill="url(#bg)"/>
  <path d="M0 315c96-44 170-30 244-8 91 27 170 55 280 8 75-32 139-38 196-23v128H0Z" fill="#fffaf1" opacity=".72"/>
  <g stroke="#24211b" stroke-opacity=".08" stroke-width="1">
    <path d="M64 0v420M144 0v420M224 0v420M304 0v420M384 0v420M464 0v420M544 0v420M624 0v420"/>
    <path d="M0 60h720M0 140h720M0 220h720M0 300h720M0 380h720"/>
  </g>
  <g filter="url(#shadow)">
    <rect x="74" y="82" width="212" height="260" rx="18" fill="#fffdf7" stroke="#d8c8b1"/>
    <rect x="102" y="116" width="100" height="12" rx="6" fill="#0d6f70" opacity=".8"/>
    <rect x="102" y="154" width="146" height="9" rx="4.5" fill="#d8c8b1"/>
    <rect x="102" y="180" width="122" height="9" rx="4.5" fill="#d8c8b1"/>
    <rect x="102" y="206" width="154" height="9" rx="4.5" fill="#d8c8b1"/>
    <rect x="102" y="252" width="118" height="46" rx="12" fill="#f4c46e" opacity=".72"/>
  </g>
  <g filter="url(#shadow)">
    <rect x="318" y="65" width="330" height="260" rx="24" fill="#fffaf1" stroke="#d8c8b1"/>
    <rect x="346" y="98" width="152" height="16" rx="8" fill="#24211b"/>
    <rect x="346" y="134" width="236" height="48" rx="16" fill="#e9f1ed" stroke="#cde0d9"/>
    <rect x="370" y="151" width="150" height="10" rx="5" fill="#0d6f70" opacity=".85"/>
    <rect x="346" y="206" width="246" height="56" rx="18" fill="#24211b"/>
    <rect x="372" y="225" width="84" height="10" rx="5" fill="#fffaf0" opacity=".82"/>
    <rect x="372" y="244" width="166" height="8" rx="4" fill="#b8d7b6"/>
    <circle cx="590" cy="112" r="28" fill="url(#accent)"/>
    <text x="590" y="123" text-anchor="middle" font-family="Georgia, serif" font-size="34" font-weight="700" fill="#fffaf0">K</text>
  </g>
  <path d="M280 204c34 0 46-46 82-46" fill="none" stroke="#d96a47" stroke-width="8" stroke-linecap="round" stroke-dasharray="1 18"/>
  <text x="74" y="382" font-family="Arial, 'PingFang SC', sans-serif" font-size="24" font-weight="700" fill="#24211b">Dify 管理制度问答助手</text>
  <text x="74" y="405" font-family="Arial, 'PingFang SC', sans-serif" font-size="14" font-weight="700" fill="#5a5043">knowledge base / feedback loop / product review</text>
</svg>
