<svg xmlns="http://www.w3.org/2000/svg" width="360" height="360" viewBox="0 0 360 360" role="img" aria-labelledby="title desc">
  <title id="title">微信二维码占位图</title>
  <desc id="desc">Temporary QR placeholder for Kleebug WeChat contact.</desc>
  <rect width="360" height="360" fill="#fffdf7"/>
  <rect x="18" y="18" width="324" height="324" rx="20" fill="#f3ecdf" stroke="#d9ccb8" stroke-width="4"/>
  <g fill="#17251d">
    <rect x="46" y="46" width="86" height="86" rx="8"/>
    <rect x="228" y="46" width="86" height="86" rx="8"/>
    <rect x="46" y="228" width="86" height="86" rx="8"/>
  </g>
  <g fill="#fffdf7">
    <rect x="66" y="66" width="46" height="46" rx="5"/>
    <rect x="248" y="66" width="46" height="46" rx="5"/>
    <rect x="66" y="248" width="46" height="46" rx="5"/>
  </g>
  <g fill="#8a5b2d">
    <rect x="160" y="48" width="22" height="22" rx="4"/>
    <rect x="184" y="72" width="46" height="22" rx="4"/>
    <rect x="160" y="118" width="70" height="22" rx="4"/>
    <rect x="146" y="158" width="24" height="58" rx="4"/>
    <rect x="184" y="158" width="22" height="22" rx="4"/>
    <rect x="230" y="158" width="42" height="22" rx="4"/>
    <rect x="206" y="204" width="86" height="24" rx="4"/>
    <rect x="150" y="242" width="34" height="22" rx="4"/>
    <rect x="208" y="248" width="22" height="66" rx="4"/>
    <rect x="246" y="250" width="68" height="22" rx="4"/>
    <rect x="292" y="292" width="22" height="22" rx="4"/>
  </g>
  <rect x="142" y="142" width="76" height="76" rx="18" fill="#17251d"/>
  <text x="180" y="188" text-anchor="middle" font-family="Arial, 'PingFang SC', sans-serif" font-size="24" font-weight="700" fill="#fffaf0">微信</text>
  <text x="180" y="336" text-anchor="middle" font-family="Arial, 'PingFang SC', sans-serif" font-size="14" font-weight="700" fill="#48554c">请替换为真实二维码</text>
</svg>
